
<svg width="512" height="512" viewBox="0 0 120 120" xmlns="http://www.w3.org/2000/svg">
  <rect width="120" height="120" fill="#0052B4" shape-rendering="crispEdges"></rect>
  <rect x="0" y="0" width="120" height="2" fill="#4488DD" shape-rendering="crispEdges"></rect>
  <rect x="0" y="0" width="2" height="120" fill="#4488DD" shape-rendering="crispEdges"></rect>
  <rect x="0" y="118" width="120" height="2" fill="#001840" shape-rendering="crispEdges"></rect>
  <rect x="118" y="0" width="2" height="120" fill="#001840" shape-rendering="crispEdges"></rect>
  <text x="60" y="26" text-anchor="middle" fill="#FFFFFF" font-family="&#39;Courier New&#39;,&#39;Lucida Console&#39;,monospace" font-weight="900" font-size="19" letter-spacing="2">PYPTS</text>
  <rect x="6" y="34" width="108" height="2" fill="#FFFFFF" opacity="0.9" shape-rendering="crispEdges"></rect>
  <path d="M 8,58 L 34,58 L 34,94 L 60,94 L 60,58 L 86,58 L 86,94 L 112,94" fill="none" stroke="#FFFFFF" stroke-width="2.8" stroke-linejoin="miter" stroke-linecap="square" shape-rendering="crispEdges"></path>
  <path d="M 8,76 C 20.6,62 30,62 42.7,76 C 55.3,90 64.7,90 77.3,76 C 90,62 99.4,62 112,76" fill="none" stroke="#CC0000" stroke-width="2.8" stroke-linecap="round" stroke-linejoin="round"></path>
</svg>